<svg id="레이어_2" data-name="레이어 2" xmlns="http://www.w3.org/2000/svg" viewBox="0 0 1200 300"><defs><style>.cls-1{fill:#dbdbdb;}.cls-2{fill:#fff;}</style></defs><path d="M97.11,249.12c-17.1,0-26.48-.3-33.44-1.06l-.13,0c-7.08-.94-12.67-3.91-16.15-8.57-3.68-4.93-4.93-11.4-3.71-19.23,7.62-48.87,16.84-98.79,28.19-152.61,2.56-11.84,9.57-14.37,13.51-14.82,13.47-1.4,29.81-2.24,43.78-2.24,5.84,0,11.26.14,16.1.42,27.82,1.63,49.3,11.21,62.11,27.7,13.54,17.43,17.42,41.66,11.54,72-5.93,30.79-21.62,56.37-45.39,74C152.24,240.44,125.1,249.12,97.11,249.12Zm1.36-48.83c1.46.07,2.79.09,3.87.09,1.65,0,3.27,0,4.67-.14,31.22-2.09,54.81-22.82,60.09-52.81,2.88-16.32,1.22-28.57-4.93-36.42-5.19-6.61-13.87-10.36-25.8-11.16-2.36-.16-4.6-.24-6.87-.24-3.47,0-7.08.18-11.35.58-2.25,11.17-6.73,34.08-11.09,56.33C103,177.23,100.05,192.34,98.47,200.29Z"/><path class="cls-1" d="M129.16,56.07c5.52,0,10.87.13,15.79.41,52.45,3.07,79.92,34.56,68.56,93.18-12.13,63-64.44,94-116.4,94-16.13,0-25.81-.26-32.85-1-11.5-1.53-17.1-9-15.15-21.5C57,170.66,66.29,120.74,77.25,68.77c1.38-6.4,4.32-10,8.76-10.5,12.51-1.3,28.46-2.2,43.15-2.2M102.34,205.88c1.89,0,3.61-.06,5-.15,30.57-2,58.88-21.76,65.15-57.35,6.37-36.09-8.71-52.22-35.79-54-2.44-.17-4.81-.26-7.23-.26a139.49,139.49,0,0,0-15.94,1C110,112.54,92.87,200.86,91.85,205.21a77.6,77.6,0,0,0,10.49.67M129.16,45.07v0c-14.36,0-30.5.83-44.29,2.26h-.12c-4.35.51-14.85,3.37-18.25,19.1v.06C55.12,120.41,45.88,170.42,38.24,219.39,36.43,231,39.82,238.53,43,242.77c3.07,4.09,9,9.28,19.83,10.72l.26,0c7.18.78,16.72,1.09,34,1.09,29.16,0,57.46-9.07,79.68-25.52,24.89-18.44,41.33-45.18,47.52-77.36,6.2-32,2-57.68-12.6-76.43C197.9,57.53,175,47.22,145.59,45.5c-5-.28-10.49-.43-16.43-.43Zm-6.44,60.27c2.42-.15,4.63-.23,6.78-.23s4.26.08,6.47.23c10.34.69,17.69,3.73,21.87,9.07,5.15,6.56,6.44,17.35,3.85,32.06-5.87,33.31-33.33,46.83-55,48.28-.39,0-.89.06-1.48.08,1.7-8.64,4.18-21.3,7.3-37.25,3.88-19.81,7.86-40.15,10.26-52.24Z"/><path d="M281,251.17c-21.61,0-40.41-7.84-52.91-22.07-11.44-13-16.4-30.47-14-49.17a92.07,92.07,0,0,1,28.36-55.38c16.41-15.27,37.71-23.89,61.59-24.93,1.57-.06,3.13-.09,4.65-.09,23.44,0,42.2,7.63,54.25,22.09,11.6,13.91,15.86,33.22,12,54.38-4,21.8-14.9,40.47-31.59,54s-37.8,20.79-61.19,21.19Zm20.33-103.86c-1.07,0-2.18.05-3.29.15-17.36,1.58-30.5,13.47-33.47,30.29-1.33,7.59.07,14.12,4.07,18.88s10.71,7.52,18.7,7.52c.76,0,1.54,0,2.32-.07a35.88,35.88,0,0,0,33.84-31.8c.93-7.42-.64-13.67-4.54-18.09S308.79,147.31,301.33,147.31Z"/><path class="cls-1" d="M308.72,105c45.77,0,67.95,31,60.83,70-7.61,41.73-42.27,69.89-87.46,70.65H281c-38.44,0-66.36-27-61.43-65,5.29-40.19,37.53-73.47,84.74-75.52q2.24-.09,4.41-.09M287.34,209.65c.87,0,1.75,0,2.65-.08A41.34,41.34,0,0,0,329,173c2.38-18.94-9.45-31.15-27.62-31.15-1.23,0-2.49.06-3.78.17-19.77,1.8-35,15.62-38.39,34.82s8.53,32.85,28.18,32.85M308.72,94h0c-1.6,0-3.24,0-4.87.1-25.22,1.09-47.73,10.22-65.12,26.39a97.7,97.7,0,0,0-30.07,58.68c-2.63,20.31,2.8,39.31,15.3,53.54,13.56,15.43,33.82,23.93,57,23.93h1.23c24.67-.42,47-8.17,64.6-22.41S376.16,200.1,380.37,177c4.17-22.79-.51-43.7-13.18-58.88C354.06,102.35,333.84,94,308.72,94ZM287.34,198.65c-6.34,0-11.49-2-14.49-5.55s-3.91-8.45-2.86-14.39c2.52-14.31,13.73-24.43,28.56-25.77.92-.08,1.87-.13,2.78-.13,5.94,0,10.62,1.74,13.51,5,3.57,4,3.71,9.71,3.2,13.76a30.45,30.45,0,0,1-28.71,27c-.67,0-1.34.06-2,.06Z"/><path d="M430.9,252.19c-13.8,0-24-3.57-30.21-10.6-6-6.71-8.24-16.41-6.76-28.83,2-16.82,5.52-40.83,9.52-65.28H389.71c-6.64,0-11.43-1.82-14.63-5.56-3.53-4.12-4.62-10.07-3.35-18.2,2-13.12,10.66-22,22.52-23l.27,0c5.43-.23,11-.43,17-.63l5.32-30.16C419.2,56.29,429,49.7,446.74,49.7c9.87,0,16.21,2.08,20,6.54,4.2,5,3.65,11.41,2.88,15.79l-4.8,27.23c11.31-.15,22.09-.15,30.34-.15a14.1,14.1,0,0,1,11,4.93c2.32,2.77,4.78,7.85,3.27,16.37-3.07,17.41-13.44,21-22.13,22.16-8.35,1.13-18.62,1.85-31,2.6-3.67,18.35-7.32,37.75-10.6,56.39a11.94,11.94,0,0,0-.22,2l.46,0c.28,0,.57,0,.88,0h.21c7.1-.27,16.26-.79,22.27-1.27h.13l.79,0a12.38,12.38,0,0,1,9.34,4.05c3.19,3.55,4.44,8.88,3.7,15.86-1.57,15.81-9.67,20.5-16.58,22.8C460.71,247.17,445.44,252.19,430.9,252.19Z"/><path class="cls-1" d="M446.74,55.2c16.64,0,19.1,6.4,17.43,15.87l-6,33.79c13.61-.25,26.92-.25,36.91-.25,6.65,0,10.52,5.63,8.9,14.85-2.44,13.82-9.85,16.64-17.45,17.66-9.44,1.28-21.87,2-34.8,2.82-4,20-7.95,40.7-11.47,60.67-.92,5.25.06,8.5,5.66,8.5.41,0,.84,0,1.3-.06,6.7-.25,16-.76,22.5-1.28h.48c4.48,0,8.66,3.46,7.57,13.84-1.32,13.31-7.49,16.38-12.93,18.18-9,3.32-22.21,6.91-34,6.91-23.81,0-34.16-11-31.51-33.28,2.18-18.18,6.15-45.06,10.54-71.43H389.71c-9.47,0-14.59-4.35-12.54-17.41,1.81-11.77,9.25-17.66,17.58-18.43,6.19-.25,13.15-.51,21.38-.76l6.1-34.56c1.49-8.45,6.59-15.62,24.51-15.62m0-11c-25.61,0-33.36,13.43-35.35,24.71l-4.54,25.77c-4.33.15-8.49.3-12.55.47l-.56,0c-14.49,1.34-25,12-27.45,27.71-1.53,9.78,0,17.18,4.61,22.59,4.25,5,10.58,7.49,18.81,7.49H397c-3.58,22.27-6.67,43.7-8.52,59.12-1.67,14.06,1,25.21,8.11,33.15,7.33,8.25,18.88,12.44,34.32,12.44s31.29-5.21,37.61-7.53c7.83-2.62,18.34-8.35,20.25-27.45.89-8.58-.82-15.33-5.09-20.08a17.83,17.83,0,0,0-13.43-5.87l-1.09,0-.26,0c-4.58.36-11,.75-16.93,1,2.81-15.74,5.86-31.91,8.93-47.44,10.61-.67,19.6-1.36,27.15-2.38,5.6-.75,22.65-3.05,26.81-26.65,1.46-8.28-.13-15.68-4.47-20.86a19.54,19.54,0,0,0-15.26-6.9c-6.63,0-14.9,0-23.77.08L475,73c.55-3.15,2.24-12.73-4.09-20.27s-16.86-8.51-24.17-8.51Z"/><path d="M531.08,251.67c-16,0-29.46-5.15-38.88-14.91-9-9.29-13.64-22.11-13.15-36.09.63-18.71,10.77-24.32,20.61-27.34a32.54,32.54,0,0,1,9.61-1.61c9.86,0,16.33,5.91,17.31,15.8.43,5,2.52,16.55,12.75,16.55,9.89,0,14.2-3.63,15.92-13.38l0-.29C567.46,121.46,573,90,577.36,68.2c1.26-6.12,6.71-20.29,30.21-20.29,10.41,0,17.4,2.29,21.36,7,3.18,3.79,4.18,8.72,3.06,15.06-9,51.08-18,94.62-26.67,129.4C597.46,232.11,569.7,251.67,531.08,251.67Z"/><path class="cls-1" d="M607.57,53.41c17.92,0,20.49,7.17,19,15.61-8.94,50.69-17.9,94.21-26.59,129-7.7,32-34.86,48.12-68.91,48.12-31.74,0-47.36-21.75-46.53-45.31.48-14.33,6.71-19.2,16.72-22.27a27.09,27.09,0,0,1,8-1.37c6.52,0,11.1,3.38,11.84,10.84.92,10.76,6.19,21.51,18.22,21.51,11.78,0,19-4.87,21.34-17.92,12-68.1,17.74-100.61,22.08-122.37,1.79-8.7,9-15.87,24.82-15.87m0-11c-9.79,0-17.91,2.27-24.12,6.75A28.8,28.8,0,0,0,572,67.06v.06c-4.37,21.86-9.92,53.35-22.09,122.36l0,.26c-1.25,7.09-3.31,8.83-10.5,8.83-5.47,0-6.9-7.17-7.26-11.44,0,0,0-.1,0-.15-1.24-12.61-10.18-20.76-22.78-20.76A37.82,37.82,0,0,0,498,168.09c-4.85,1.49-11.89,4.18-17.07,10.31-4.66,5.5-7.07,12.73-7.39,22.09-.54,15.47,4.68,29.72,14.69,40.09,10.49,10.86,25.3,16.59,42.84,16.59,19.39,0,36.84-4.81,50.45-13.92,14.73-9.84,24.8-24.57,29.14-42.59,8.72-34.9,17.71-78.54,26.74-129.73,1.4-7.93,0-14.5-4.27-19.54-5.07-6-13.43-9-25.57-9Z"/><path d="M789.08,251.73c-.68,0-1.38,0-2.09-.07-7.31-.47-12.74-2.91-16.15-7.25s-4.59-10.54-3.25-18.13c1.2-6.52,2.36-12.87,3.51-19.17,2.94-16.08,5.78-31.63,8.81-47.48-12.21,19.51-25.8,39.13-36.7,54.86l-.18.24c-6.82,8.79-18.35,9.81-26.43,9.81-8.72,0-20.74-1.13-24.55-10.93l0-.12c-7.64-21.06-13.72-38.32-18.94-57.38-3.51,24.27-7.5,47.4-12.41,72.19-2.86,14.38-12,22.46-26.31,23.36h-.13l-1.55,0c-6.53,0-11.5-1.79-14.78-5.34-4.7-5.08-4.71-12.43-4.31-17.51,2.91-35.43,14.34-112,23.26-162.57,1.44-8.15,4.33-15.91,15.64-17.55a111.07,111.07,0,0,1,14.85-.86c4.67,0,9.26.21,12.9.58,8.26.8,14.23,5,16,11.39,5,16.69,11,36.35,16.85,55.36,4.72,15.36,9.57,31.12,13.81,45.2,20.34-30.63,46.89-70.62,66.82-101.29,2.71-4.24,8.41-9.42,13.57-10.56l.15,0a54.86,54.86,0,0,1,10.41-.9,145.94,145.94,0,0,1,14.8,1l1,.11c5.64.7,9.58,2.66,12.06,6s3.18,7.65,2.2,13.2c-8.76,49.68-25.17,124.46-34.06,162.6C810.43,244.23,801.64,251.73,789.08,251.73Z"/><path class="cls-1" d="M817.8,53.12A149.05,149.05,0,0,1,833,54.18c8.27,1,10.88,5.12,9.52,12.8-8.84,50.17-25.58,126.2-34,162.3-2.49,10-8.39,16.95-19.41,16.95-.57,0-1.15,0-1.75-.06-11.89-.76-16.35-7.42-14.32-18.94,6.21-33.79,11.63-64.51,18.66-98.56-14.51,27.14-36.84,59.39-53,82.69-5,6.4-13.64,7.68-22.09,7.68-9.22,0-17.14-1.54-19.43-7.42-10.68-29.44-18.86-52.74-25.62-85.51-4.4,35.07-9.35,66.05-16.3,101.12-2.29,11.52-9.09,18.18-21.26,18.94l-1.33,0c-12,0-14.41-6.79-13.61-16.92,2.9-35.33,14.26-111.36,23.2-162,1.44-8.19,3.91-12,11-13.05a105.56,105.56,0,0,1,14.07-.81c4.43,0,8.84.19,12.35.55,5.28.51,10,2.82,11.23,7.42,10.13,34.05,24.41,79.36,34,111.87,21.25-32,51.21-77.05,73.35-111.1,2.12-3.33,6.68-7.42,10.14-8.19a49.94,49.94,0,0,1,9.37-.8m0-11a60,60,0,0,0-11.45,1l-.3.06c-7,1.55-13.7,7.8-17,13-17.87,27.49-41,62.47-60.31,91.48-3.35-11-6.92-22.64-10.43-34-5.83-19-11.87-38.62-16.82-55.27C699.1,49.74,691.36,44,680.74,43c-3.82-.38-8.58-.6-13.42-.6a116,116,0,0,0-15.64.92c-16.81,2.43-19.32,16.67-20.26,22-8.95,50.73-20.41,127.49-23.33,163.06-.49,6.15-.41,15,5.75,21.71,4.36,4.72,10.69,7.11,18.82,7.11l1.76,0,.26,0c16.88-1.06,28-10.93,31.36-27.78,3.29-16.6,6.17-32.46,8.76-48.41,3.57,10.92,7.54,22,12,34.41l.09.23C692.54,230,710.65,230,716.6,230c9.23,0,22.47-1.24,30.78-11.94a5.92,5.92,0,0,0,.35-.48c6.54-9.44,14-20.27,21.65-31.65-1.23,6.67-2.45,13.36-3.69,20.16-1.15,6.29-2.31,12.64-3.5,19.11v.08c-1.62,9.2-.17,16.77,4.33,22.49s11.19,8.77,20.12,9.34c.83.05,1.65.08,2.45.08,15.11,0,26.07-9.22,30.08-25.29,0-.05,0-.11,0-.16,8.9-38.2,25.34-113.1,34.12-162.89,1.23-7,.16-12.88-3.2-17.43s-8.69-7.32-15.8-8.2l-.24,0-.92-.09a148.57,148.57,0,0,0-15.36-1Z"/><circle class="cls-2" cx="1017.75" cy="150.75" r="142.25"/><path class="cls-1" d="M1017.75,13.5a137.25,137.25,0,0,1,97,234.3A137.25,137.25,0,1,1,920.7,53.7a136.36,136.36,0,0,1,97-40.2m0-10A147.25,147.25,0,1,0,1165,150.75,147.26,147.26,0,0,0,1017.75,3.5Z"/><path d="M958,188.68c-18.83,0-28.09-13.26-27.6-27.62.28-8.74,4-11.7,9.92-13.57,6.27-2,11.16-.47,11.76,5.77.55,6.55,3.68,13.11,10.81,13.11s11.29-3,12.66-10.92c7.12-41.51,10.52-61.33,13.1-74.59,1.06-5.31,5.3-9.68,14.72-9.68,10.63,0,12.15,4.37,11.27,9.52-5.3,30.9-10.61,57.42-15.77,78.65C994.25,178.85,978.14,188.68,958,188.68Z"/><path d="M1073.16,205.88c-3,3.9-8.31,4.68-13.45,4.68-5.62,0-10.44-.94-11.84-4.52-6.5-17.93-11.48-32.12-15.6-52.08-2.68,21.36-5.69,40.23-9.93,61.59-1.39,7-5.54,11.07-13,11.54-8,.31-9.6-3.9-9.1-10.29,1.77-21.52,8.69-67.83,14.13-98.7.88-5,2.39-7.33,6.71-7.95a78.37,78.37,0,0,1,16.08-.16c3.22.31,6.09,1.72,6.85,4.52,6.16,20.74,14.86,48.34,20.72,68.14,13-19.49,31.2-46.93,44.68-67.67,1.29-2,4.07-4.52,6.18-5,4.84-.93,10.34-.31,14.94.16,5,.62,6.62,3.12,5.8,7.79-5.39,30.56-15.59,76.87-20.71,98.86-1.59,6.39-5.48,10.75-12.88,10.29-7.25-.47-10-4.53-8.73-11.54,3.79-20.58,7.09-39.29,11.37-60C1096.59,172.05,1083,191.69,1073.16,205.88Z"/><path d="M900.38,132.64a18.1,18.1,0,0,1,17.61-15c8.42,0,13.81,6.54,12.33,15a18.38,18.38,0,0,1-17.61,15C904.29,147.61,898.9,141.06,900.38,132.64Z"/></svg>